<svg width="41" height="42" viewBox="0 0 41 42" fill="none" xmlns="http://www.w3.org/2000/svg">
<path d="M20.5 3.5C11.07 3.5 3.41669 11.34 3.41669 21C3.41669 30.66 11.07 38.5 20.5 38.5C29.93 38.5 37.5834 30.66 37.5834 21C37.5834 11.34 29.93 3.5 20.5 3.5ZM12.5563 32.375C14.7942 30.73 17.5275 29.75 20.5 29.75C23.4725 29.75 26.2059 30.73 28.4438 32.375C26.2059 34.02 23.4725 35 20.5 35C17.5275 35 14.7942 34.02 12.5563 32.375ZM30.9892 29.96C28.1021 27.65 24.4634 26.25 20.5 26.25C16.5367 26.25 12.8979 27.65 10.0109 29.96C8.02919 27.5275 6.83335 24.4125 6.83335 21C6.83335 13.265 12.9492 7 20.5 7C28.0509 7 34.1667 13.265 34.1667 21C34.1667 24.4125 32.9709 27.5275 30.9892 29.96Z" fill="black"/>
<path d="M20.5 10.5C17.2029 10.5 14.5209 13.2475 14.5209 16.625C14.5209 20.0025 17.2029 22.75 20.5 22.75C23.7971 22.75 26.4792 20.0025 26.4792 16.625C26.4792 13.2475 23.7971 10.5 20.5 10.5ZM20.5 19.25C19.0821 19.25 17.9375 18.0775 17.9375 16.625C17.9375 15.1725 19.0821 14 20.5 14C21.9179 14 23.0625 15.1725 23.0625 16.625C23.0625 18.0775 21.9179 19.25 20.5 19.25Z" fill="black"/>
</svg>
