<svg width="114" height="34" viewBox="0 0 114 34" fill="none" xmlns="http://www.w3.org/2000/svg">
<path d="M9.67969 0.344727C13.2292 7.22006 8.19671 10.7095 9.41211 15.0723C10.6698 19.5861 14.763 19.9567 17.4424 18.876C19.7951 17.9268 20.8401 15.0684 20.0664 12.1465C22.0866 14.8523 23.5653 18.1772 24 23.5508C23.9998 29.3218 18.6273 34 12 34C5.37268 34 0.000204498 29.3218 0 23.5508C0 14.1055 13.0672 6.33334 9.45117 0C9.52685 0.11639 9.6037 0.230874 9.67969 0.344727Z" fill="#061C43"/>
<path d="M36.2039 29.14C35.2306 29.14 34.3506 28.9733 33.5639 28.64C32.7906 28.3067 32.1772 27.8267 31.7239 27.2C31.2706 26.5733 31.0372 25.8333 31.0239 24.98H34.0239C34.0639 25.5533 34.2639 26.0067 34.6239 26.34C34.9972 26.6733 35.5039 26.84 36.1439 26.84C36.7972 26.84 37.3106 26.6867 37.6839 26.38C38.0572 26.06 38.2439 25.6467 38.2439 25.14C38.2439 24.7267 38.1172 24.3867 37.8639 24.12C37.6106 23.8533 37.2906 23.6467 36.9039 23.5C36.5306 23.34 36.0106 23.1667 35.3439 22.98C34.4372 22.7133 33.6972 22.4533 33.1239 22.2C32.5639 21.9333 32.0772 21.54 31.6639 21.02C31.2639 20.4867 31.0639 19.78 31.0639 18.9C31.0639 18.0733 31.2706 17.3533 31.6839 16.74C32.0972 16.1267 32.6772 15.66 33.4239 15.34C34.1706 15.0067 35.0239 14.84 35.9839 14.84C37.4239 14.84 38.5906 15.1933 39.4839 15.9C40.3906 16.5933 40.8906 17.5667 40.9839 18.82H37.9039C37.8772 18.34 37.6706 17.9467 37.2839 17.64C36.9106 17.32 36.4106 17.16 35.7839 17.16C35.2372 17.16 34.7972 17.3 34.4639 17.58C34.1439 17.86 33.9839 18.2667 33.9839 18.8C33.9839 19.1733 34.1039 19.4867 34.3439 19.74C34.5972 19.98 34.9039 20.18 35.2639 20.34C35.6372 20.4867 36.1572 20.66 36.8239 20.86C37.7306 21.1267 38.4706 21.3933 39.0439 21.66C39.6172 21.9267 40.1106 22.3267 40.5239 22.86C40.9372 23.3933 41.1439 24.0933 41.1439 24.96C41.1439 25.7067 40.9506 26.4 40.5639 27.04C40.1772 27.68 39.6106 28.1933 38.8639 28.58C38.1172 28.9533 37.2306 29.14 36.2039 29.14ZM44.8114 29.14C44.3047 29.14 43.8847 28.9867 43.5514 28.68C43.2314 28.36 43.0714 27.9667 43.0714 27.5C43.0714 27.0333 43.2314 26.6467 43.5514 26.34C43.8847 26.02 44.3047 25.86 44.8114 25.86C45.3047 25.86 45.7114 26.02 46.0314 26.34C46.3514 26.6467 46.5114 27.0333 46.5114 27.5C46.5114 27.9667 46.3514 28.36 46.0314 28.68C45.7114 28.9867 45.3047 29.14 44.8114 29.14ZM55.2467 29.14C53.9401 29.14 52.7401 28.8333 51.6467 28.22C50.5534 27.6067 49.6867 26.76 49.0467 25.68C48.4067 24.5867 48.0867 23.3533 48.0867 21.98C48.0867 20.62 48.4067 19.4 49.0467 18.32C49.6867 17.2267 50.5534 16.3733 51.6467 15.76C52.7401 15.1467 53.9401 14.84 55.2467 14.84C56.5667 14.84 57.7667 15.1467 58.8467 15.76C59.9401 16.3733 60.8001 17.2267 61.4267 18.32C62.0667 19.4 62.3867 20.62 62.3867 21.98C62.3867 23.3533 62.0667 24.5867 61.4267 25.68C60.8001 26.76 59.9401 27.6067 58.8467 28.22C57.7534 28.8333 56.5534 29.14 55.2467 29.14ZM55.2467 26.64C56.0867 26.64 56.8267 26.4533 57.4667 26.08C58.1067 25.6933 58.6067 25.1467 58.9667 24.44C59.3267 23.7333 59.5067 22.9133 59.5067 21.98C59.5067 21.0467 59.3267 20.2333 58.9667 19.54C58.6067 18.8333 58.1067 18.2933 57.4667 17.92C56.8267 17.5467 56.0867 17.36 55.2467 17.36C54.4067 17.36 53.6601 17.5467 53.0067 17.92C52.3667 18.2933 51.8667 18.8333 51.5067 19.54C51.1467 20.2333 50.9667 21.0467 50.9667 21.98C50.9667 22.9133 51.1467 23.7333 51.5067 24.44C51.8667 25.1467 52.3667 25.6933 53.0067 26.08C53.6601 26.4533 54.4067 26.64 55.2467 26.64ZM65.7098 29.14C65.2032 29.14 64.7832 28.9867 64.4498 28.68C64.1298 28.36 63.9698 27.9667 63.9698 27.5C63.9698 27.0333 64.1298 26.6467 64.4498 26.34C64.7832 26.02 65.2032 25.86 65.7098 25.86C66.2032 25.86 66.6098 26.02 66.9298 26.34C67.2498 26.6467 67.4098 27.0333 67.4098 27.5C67.4098 27.9667 67.2498 28.36 66.9298 28.68C66.6098 28.9867 66.2032 29.14 65.7098 29.14ZM76.8652 29L73.7852 23.56H72.4652V29H69.6652V15.04H74.9052C75.9852 15.04 76.9052 15.2333 77.6652 15.62C78.4252 15.9933 78.9918 16.5067 79.3652 17.16C79.7518 17.8 79.9452 18.52 79.9452 19.32C79.9452 20.24 79.6785 21.0733 79.1452 21.82C78.6118 22.5533 77.8185 23.06 76.7652 23.34L80.1052 29H76.8652ZM72.4652 21.46H74.8052C75.5652 21.46 76.1318 21.28 76.5052 20.92C76.8785 20.5467 77.0652 20.0333 77.0652 19.38C77.0652 18.74 76.8785 18.2467 76.5052 17.9C76.1318 17.54 75.5652 17.36 74.8052 17.36H72.4652V21.46ZM83.7177 29.14C83.211 29.14 82.791 28.9867 82.4577 28.68C82.1377 28.36 81.9777 27.9667 81.9777 27.5C81.9777 27.0333 82.1377 26.6467 82.4577 26.34C82.791 26.02 83.211 25.86 83.7177 25.86C84.211 25.86 84.6177 26.02 84.9377 26.34C85.2577 26.6467 85.4177 27.0333 85.4177 27.5C85.4177 27.9667 85.2577 28.36 84.9377 28.68C84.6177 28.9867 84.211 29.14 83.7177 29.14ZM94.153 29.14C92.8463 29.14 91.6463 28.8333 90.553 28.22C89.4596 27.6067 88.593 26.76 87.953 25.68C87.313 24.5867 86.993 23.3533 86.993 21.98C86.993 20.62 87.313 19.4 87.953 18.32C88.593 17.2267 89.4596 16.3733 90.553 15.76C91.6463 15.1467 92.8463 14.84 94.153 14.84C95.473 14.84 96.673 15.1467 97.753 15.76C98.8463 16.3733 99.7063 17.2267 100.333 18.32C100.973 19.4 101.293 20.62 101.293 21.98C101.293 23.3533 100.973 24.5867 100.333 25.68C99.7063 26.76 98.8463 27.6067 97.753 28.22C96.6596 28.8333 95.4596 29.14 94.153 29.14ZM94.153 26.64C94.993 26.64 95.733 26.4533 96.373 26.08C97.013 25.6933 97.513 25.1467 97.873 24.44C98.233 23.7333 98.413 22.9133 98.413 21.98C98.413 21.0467 98.233 20.2333 97.873 19.54C97.513 18.8333 97.013 18.2933 96.373 17.92C95.733 17.5467 94.993 17.36 94.153 17.36C93.313 17.36 92.5663 17.5467 91.913 17.92C91.273 18.2933 90.773 18.8333 90.413 19.54C90.053 20.2333 89.873 21.0467 89.873 21.98C89.873 22.9133 90.053 23.7333 90.413 24.44C90.773 25.1467 91.273 25.6933 91.913 26.08C92.5663 26.4533 93.313 26.64 94.153 26.64Z" fill="#061C43"/>
</svg>
